<svg width="38" height="38" viewBox="0 0 38 38" fill="none" xmlns="http://www.w3.org/2000/svg">
<rect width="38" height="38" rx="4" fill="#696969" fill-opacity="0.5"/>
<path d="M27.4999 26H27.4061C24.7499 25.968 22.3436 24.7208 20.4064 22.4182C20.0313 21.9703 19.719 21.5228 19.4689 21.1389C19.1876 21.5548 18.8751 21.9704 18.5003 22.4182C16.5314 24.6248 14.0939 25.808 11.4062 25.776C7.2812 25.7441 3.96859 22.3542 4.00022 18.2926C4.03148 16.3099 4.84392 14.4549 6.28139 13.0797C7.71887 11.7045 9.59375 10.969 11.5939 11.001C14.2501 11.033 16.6563 12.2802 18.5936 14.5828C18.9687 15.0307 19.281 15.4782 19.531 15.8621C19.8123 15.4462 20.1249 15.0306 20.4997 14.5828C22.4683 12.3122 24.906 11.129 27.5931 11.161C31.7182 11.2249 35.0618 14.5828 34.9991 18.6444C34.9679 20.6271 34.1554 22.4822 32.718 23.8573C31.3119 25.2323 29.4683 26 27.4995 26H27.4999ZM20.8754 18.4848C21.5005 19.796 23.5629 23.3458 27.4378 23.4098C28.7816 23.4418 30.0628 22.93 31.0003 22.0026C31.9377 21.1073 32.4691 19.892 32.5004 18.6128C32.5316 15.9583 30.3129 13.7517 27.5629 13.7197C23.6876 13.6875 21.5315 17.2056 20.8751 18.4848H20.8754ZM11.5006 13.5275C10.1881 13.5275 8.93817 14.0073 8.0007 14.9347C7.06328 15.8301 6.5319 17.0454 6.50064 18.3246C6.46938 20.979 8.68808 23.1856 11.4381 23.2176H11.5319C15.3444 23.2176 17.4693 19.7638 18.1253 18.4525C17.5002 17.1413 15.4378 13.5915 11.5629 13.5275H11.5004H11.5006Z" fill="#00BF8F"/>
</svg>
