<svg width="37" height="37" viewBox="0 0 37 37" fill="none" xmlns="http://www.w3.org/2000/svg">
<g clip-path="url(#clip0_35_1142)">
<rect width="37" height="37" rx="4" fill="#696969" fill-opacity="0.5"/>
<mask id="mask0_35_1142" style="mask-type:luminance" maskUnits="userSpaceOnUse" x="0" y="0" width="37" height="37">
<path d="M0.295532 0.295563H36.7037V36.7037H0.295532V0.295563Z" fill="white"/>
</mask>
<g mask="url(#mask0_35_1142)">
<path d="M34.8833 10.6115C35.5337 10.6115 36.1347 10.2646 36.4599 9.70138C36.785 9.13794 36.785 8.44411 36.4599 7.88094C36.1347 7.31777 35.5337 6.97054 34.8833 6.97054H31.3567C31.0374 6.42008 30.5795 5.9625 30.0291 5.64295V2.11631C30.0291 1.46592 29.6821 0.86496 29.1187 0.539764C28.5555 0.214569 27.8616 0.214569 27.2985 0.539764C26.735 0.86496 26.388 1.46592 26.388 2.11631V5.15031H25.1745V2.11631C25.1745 1.46592 24.8276 0.86496 24.2644 0.539764C23.7009 0.214569 23.0071 0.214569 22.4439 0.539764C21.8808 0.86496 21.5338 1.46592 21.5338 2.11631V5.15031H20.32V2.11631C20.32 1.46592 19.973 0.86496 19.4099 0.539764C18.8467 0.214569 18.1526 0.214569 17.5894 0.539764C17.0263 0.86496 16.6793 1.46592 16.6793 2.11631V5.15031H15.4657V2.11631C15.4657 1.46592 15.1188 0.86496 14.5553 0.539764C13.9922 0.214569 13.2983 0.214569 12.7351 0.539764C12.1717 0.86496 11.8247 1.46592 11.8247 2.11631V5.15031H10.6112V2.11631C10.6112 1.46592 10.2642 0.86496 9.70105 0.539764C9.1376 0.214569 8.44377 0.214569 7.8806 0.539764C7.31744 0.86496 6.9702 1.46592 6.9702 2.11631V5.64295C6.41974 5.9625 5.96217 6.42009 5.64261 6.97054H2.11598C1.46559 6.97054 0.864624 7.31775 0.539429 7.88094C0.214233 8.44411 0.214233 9.138 0.539429 9.70138C0.864624 10.2646 1.46559 10.6115 2.11598 10.6115H5.14998V11.8251H2.11598C1.46559 11.8251 0.864624 12.172 0.539429 12.7355C0.214233 13.2986 0.214233 13.9925 0.539429 14.5557C0.864624 15.1191 1.46559 15.4661 2.11598 15.4661H5.14998V16.6796H2.11598C1.46559 16.6796 0.864624 17.0266 0.539429 17.5898C0.214233 18.1529 0.214233 18.847 0.539429 19.4102C0.864624 19.9734 1.46559 20.3203 2.11598 20.3203H5.14998V21.5339L2.11598 21.5342C1.46559 21.5342 0.864624 21.8811 0.539429 22.4443C0.214233 23.0074 0.214233 23.7013 0.539429 24.2647C0.864624 24.8279 1.46559 25.1748 2.11598 25.1748H5.14998V26.3884H2.11598C1.46559 26.3884 0.864624 26.7353 0.539429 27.2988C0.214233 27.8619 0.214233 28.5558 0.539429 29.119C0.864624 29.6825 1.46559 30.0294 2.11598 30.0294H5.64261C5.96216 30.5799 6.41976 31.0377 6.9702 31.357V34.8836C6.9702 35.534 7.31742 36.135 7.8806 36.4602C8.44377 36.7854 9.13767 36.7854 9.70105 36.4602C10.2642 36.135 10.6112 35.534 10.6112 34.8836V31.8499H11.8247V34.8839V34.8836C11.8247 35.534 12.1716 36.135 12.7351 36.4602C13.2983 36.7854 13.9922 36.7854 14.5553 36.4602C15.1188 36.135 15.4657 35.534 15.4657 34.8836V31.8499H16.6793V34.8839V34.8837C16.6793 35.534 17.0262 36.135 17.5894 36.4602C18.1526 36.7854 18.8467 36.7854 19.4099 36.4602C19.973 36.135 20.32 35.534 20.32 34.8837V31.8499H21.5335V34.8839L21.5338 34.8837C21.5338 35.534 21.8807 36.135 22.4439 36.4602C23.0071 36.7854 23.701 36.7854 24.2644 36.4602C24.8275 36.135 25.1745 35.534 25.1745 34.8837V31.8499H26.388V34.8839V34.8837C26.388 35.5341 26.735 36.135 27.2984 36.4602C27.8616 36.7854 28.5555 36.7854 29.1187 36.4602C29.6821 36.135 30.0291 35.5341 30.0291 34.8837V31.357C30.5795 31.0378 31.0374 30.5799 31.3567 30.0294H34.8833C35.5337 30.0294 36.1346 29.6825 36.4598 29.119C36.785 28.5559 36.785 27.862 36.4598 27.2988C36.1346 26.7354 35.5337 26.3884 34.8833 26.3884H31.8496V25.1748H34.8836H34.8833C35.5337 25.1748 36.1347 24.8279 36.4599 24.2647C36.785 23.7013 36.785 23.0075 36.4599 22.4443C36.1347 21.8811 35.5337 21.5342 34.8833 21.5342H31.8496V20.3203H34.8836H34.8833C35.5337 20.3203 36.1347 19.9734 36.4599 19.4102C36.7851 18.847 36.7851 18.1529 36.4599 17.5898C36.1347 17.0266 35.5337 16.6797 34.8833 16.6797H31.8496V15.4661H34.8836H34.8833C35.5337 15.4661 36.1347 15.1192 36.4599 14.5557C36.7851 13.9925 36.7851 13.2986 36.4599 12.7355C36.1347 12.172 35.5337 11.8251 34.8833 11.8251H31.8496V10.6115L34.8833 10.6115ZM2.1159 14.2525C1.78083 14.2525 1.50899 13.9806 1.50899 13.6455C1.50899 13.3105 1.78083 13.0386 2.1159 13.0386H5.1499V14.2522L2.1159 14.2525ZM2.1159 19.107V19.1067C1.78083 19.1067 1.50899 18.8351 1.50899 18.5001C1.50899 18.1647 1.78083 17.8931 2.1159 17.8931H5.1499V19.1067L2.1159 19.107ZM2.1159 23.9615V23.9612C1.78083 23.9612 1.50899 23.6896 1.50899 23.3543C1.50899 23.0192 1.78083 22.7477 2.1159 22.7477H5.1499V23.9612L2.1159 23.9615ZM2.1159 28.816V28.8157C1.78083 28.8157 1.50899 28.5439 1.50899 28.2088C1.50899 27.8737 1.78083 27.6019 2.1159 27.6019H5.1499V28.2088C5.15103 28.4123 5.16938 28.6153 5.20439 28.8157L2.1159 28.816ZM5.1499 8.7912V9.39811H2.1159C1.78083 9.39811 1.50899 9.12627 1.50899 8.7912C1.50899 8.45612 1.78083 8.18456 2.1159 8.18456H5.20439C5.16939 8.38499 5.15103 8.58795 5.1499 8.7912ZM27.6014 2.11653C27.6014 1.78145 27.8732 1.50961 28.2083 1.50961C28.5434 1.50961 28.8152 1.78145 28.8152 2.11653V5.20502C28.6148 5.17001 28.4118 5.15166 28.2083 5.15054H27.6014V2.11653ZM22.7472 2.11653C22.7472 1.78145 23.0187 1.50961 23.3538 1.50961C23.6892 1.50961 23.9607 1.78145 23.9607 2.11653V5.15053H22.7472L22.7472 2.11653ZM17.8926 2.11653C17.8926 1.78145 18.1642 1.50961 18.4996 1.50961C18.8346 1.50961 19.1062 1.78145 19.1062 2.11653V5.15053H17.8926L17.8926 2.11653ZM13.0381 2.11653C13.0381 1.78145 13.31 1.50961 13.645 1.50961C13.9801 1.50961 14.252 1.78145 14.252 2.11653V5.15053H13.0381L13.0381 2.11653ZM8.1839 2.11653C8.1839 1.78145 8.45546 1.50961 8.79054 1.50961C9.12561 1.50961 9.39745 1.78145 9.39745 2.11653V5.15053H8.79054C8.58729 5.15166 8.38432 5.17001 8.1839 5.20501V2.11653ZM9.39746 34.8839V34.8837C9.39746 35.219 9.12562 35.4906 8.79055 35.4906C8.45547 35.4906 8.18391 35.219 8.18391 34.8837V31.7952C8.38433 31.8304 8.5873 31.8485 8.79055 31.8499H9.39746V34.8839ZM14.252 34.8839V34.8837C14.252 35.219 13.9801 35.4906 13.6451 35.4906C13.31 35.4906 13.0381 35.219 13.0381 34.8837V31.8499H14.2517L14.252 34.8839ZM19.1065 34.8839L19.1062 34.8837C19.1062 35.219 18.8347 35.4906 18.4996 35.4906C18.1642 35.4906 17.8927 35.219 17.8927 34.8837V31.8499H19.1062L19.1065 34.8839ZM23.961 34.8839L23.9607 34.8837C23.9607 35.219 23.6892 35.4906 23.3538 35.4906C23.0187 35.4906 22.7472 35.219 22.7472 34.8837V31.8499H23.9607L23.961 34.8839ZM28.8155 34.8839L28.8152 34.8837C28.8152 35.219 28.5434 35.4906 28.2083 35.4906C27.8733 35.4906 27.6014 35.219 27.6014 34.8837V31.8499H28.2083C28.4119 31.8485 28.6148 31.8305 28.8152 31.7952L28.8155 34.8839ZM30.636 28.2093L30.6354 28.209C30.6354 28.8526 30.3796 29.4699 29.9246 29.9253C29.4693 30.3803 28.8519 30.6361 28.2083 30.6361H8.79052C8.14691 30.6361 7.52956 30.3803 7.07421 29.9253C6.61916 29.47 6.36342 28.8526 6.36342 28.209V8.79121C6.36342 8.14759 6.61917 7.53024 7.07421 7.0749C7.52954 6.61985 8.14692 6.3641 8.79052 6.3641H28.2083C28.8519 6.3641 29.4693 6.61985 29.9246 7.0749C30.3797 7.53023 30.6354 8.14761 30.6354 8.79121L30.636 28.2093ZM34.8835 27.6023L34.883 27.6021C35.2183 27.6021 35.4899 27.8739 35.4899 28.209C35.4899 28.5441 35.2183 28.8159 34.883 28.8159H31.7945C31.8298 28.6155 31.8478 28.4125 31.8492 28.209V27.6021L34.8835 27.6023ZM34.8835 22.7478H34.883C35.2183 22.7478 35.4899 23.0194 35.4899 23.3545C35.4899 23.6898 35.2183 23.9614 34.883 23.9614H31.8492V22.7478L34.8835 22.7478ZM34.8835 17.8933H34.883C35.2183 17.8933 35.4899 18.1649 35.4899 18.5002C35.4899 18.8353 35.2183 19.1069 34.883 19.1069H31.8492V17.8933L34.8835 17.8933ZM34.8835 13.0388H34.883C35.2183 13.0388 35.4899 13.3106 35.4899 13.6457C35.4899 13.9808 35.2183 14.2526 34.883 14.2526H31.8492V13.0388L34.8835 13.0388ZM31.795 8.18428L34.8829 8.18456C35.2183 8.18456 35.4899 8.45612 35.4899 8.7912C35.4899 9.12627 35.2183 9.39811 34.8829 9.39811H31.8492V8.7912C31.8478 8.58795 31.8298 8.38499 31.7945 8.18456L31.795 8.18428Z" fill="#00BF8F"/>
</g>
<path d="M27.6019 7.57776H9.39819C8.9152 7.57776 8.45224 7.76943 8.111 8.111C7.76943 8.45229 7.57776 8.91524 7.57776 9.3982V27.6019C7.57776 28.0849 7.76943 28.5479 8.111 28.8891C8.45229 29.2307 8.91524 29.4223 9.39819 29.4223H27.6019C28.0849 29.4223 28.5479 29.2307 28.8891 28.8891C29.2307 28.5478 29.4223 28.0849 29.4223 27.6019V9.3982C29.4223 8.9152 29.2307 8.45224 28.8891 8.111C28.5478 7.76943 28.0849 7.57776 27.6019 7.57776ZM28.2088 27.6018C28.2088 27.763 28.145 27.9172 28.031 28.0309C27.9172 28.145 27.7631 28.2088 27.6019 28.2088H9.39819C9.06312 28.2088 8.79128 27.9372 8.79128 27.6018V9.39813C8.79128 9.06305 9.06312 8.79122 9.39819 8.79122H27.6019C27.7631 8.79122 27.9172 8.85529 28.031 8.96905C28.145 9.08281 28.2088 9.23722 28.2088 9.39813V27.6018Z" fill="#00BF8F"/>
<path d="M23.3541 20.3204H26.3881C26.7232 20.3204 26.995 20.0488 26.995 19.7137C26.995 19.3787 26.7232 19.1068 26.3881 19.1068H23.3541V17.7597L24.6752 17.4297C25.281 17.2813 25.7676 16.8313 25.9635 16.239L26.9659 13.2304V13.2307C27.0718 12.9122 26.8996 12.5681 26.5812 12.4623C26.2627 12.3564 25.9189 12.5286 25.8128 12.847L24.8104 15.8557C24.7449 16.0527 24.5831 16.2029 24.3816 16.2531L23.338 16.514H23.3377C23.3064 16.1693 23.1771 15.8407 22.9648 15.5674C22.7525 15.2939 22.4666 15.087 22.1405 14.9709V14.2525C22.1391 13.8774 22.0217 13.5118 21.8043 13.2058C21.5873 12.9001 21.2807 12.6686 20.927 12.5436V12.4321C20.927 11.5649 20.4643 10.7635 19.7134 10.3299C18.9622 9.89627 18.0372 9.89627 17.286 10.3299C16.5351 10.7635 16.0724 11.5649 16.0724 12.4321V12.5439V12.5436C15.7187 12.6686 15.4125 12.9001 15.1951 13.2058C14.978 13.5118 14.8606 13.8774 14.8589 14.2525V14.9709C14.5328 15.087 14.2471 15.2942 14.0352 15.5674C13.8229 15.841 13.6936 16.1693 13.6623 16.514L12.6187 16.2531C12.4171 16.2029 12.2551 16.0527 12.1896 15.8557L11.1866 12.847C11.0808 12.5286 10.7367 12.3564 10.4182 12.4623C10.1001 12.5681 9.92761 12.9122 10.0338 13.2307L11.0362 16.239C11.2312 16.8307 11.717 17.2804 12.322 17.4297L13.6453 17.7597V19.1068H10.6113C10.2762 19.1068 10.0044 19.3787 10.0044 19.7137C10.0044 20.0488 10.2762 20.3204 10.6113 20.3204H13.6453V21.5339C13.6453 21.5593 13.649 21.5842 13.649 21.6104L12.3251 21.9958H12.3248C11.7201 22.1473 11.2343 22.5967 11.0361 23.1876L10.0349 26.1973C9.92933 26.5154 10.1015 26.8587 10.4197 26.9642C10.4815 26.9846 10.5461 26.995 10.6113 26.9953C10.8727 26.9953 11.1048 26.8276 11.1872 26.5795L12.189 23.5729C12.2604 23.3676 12.4332 23.2138 12.6452 23.1664L13.8254 22.8228C14.2031 24.1984 15.1671 25.3377 16.4609 25.9378C17.7547 26.5379 19.2471 26.538 20.5411 25.9378C21.8348 25.3377 22.7988 24.1984 23.1762 22.8228L24.3771 23.1723H24.3774C24.5803 23.2223 24.7441 23.3719 24.8118 23.5698L25.8136 26.5795C25.8958 26.8273 26.1272 26.9947 26.3881 26.9953C26.453 26.995 26.5177 26.9846 26.5792 26.9642C26.8973 26.8587 27.0695 26.5154 26.9639 26.1973L25.9635 23.1845C25.7687 22.601 25.2919 22.1558 24.6963 22.002L23.3523 21.6107C23.3523 21.5847 23.356 21.5596 23.356 21.5342L23.3541 20.3204ZM18.4999 11.2185C18.8217 11.2185 19.1302 11.3464 19.358 11.5739C19.5855 11.8015 19.7134 12.1103 19.7134 12.4321H17.286C17.286 12.1103 17.4139 11.8015 17.6417 11.5739C17.8692 11.3464 18.1778 11.2185 18.4999 11.2185ZM17.8929 25.1203C17.0455 24.9763 16.2763 24.5373 15.721 23.8811C15.166 23.225 14.8606 22.3937 14.8589 21.5341V16.6796C14.8589 16.3445 15.1304 16.0727 15.4658 16.0727H17.8929L17.8929 25.1203ZM16.0725 14.8593V14.2526C16.0725 13.9173 16.3443 13.6457 16.6794 13.6457H20.3204H20.3201C20.481 13.6457 20.6354 13.7095 20.7492 13.8236C20.8629 13.9373 20.927 14.0914 20.927 14.2526V14.8596L16.0725 14.8593ZM22.1406 21.5342C22.1389 22.3938 21.8337 23.2251 21.2784 23.8812C20.7232 24.5375 19.954 24.9765 19.1065 25.1204V16.0728H21.5339C21.6948 16.0728 21.8489 16.1368 21.963 16.2506C22.0767 16.3644 22.1405 16.5188 22.1405 16.6797L22.1406 21.5342Z" fill="#00BF8F"/>
</g>
<defs>
<clipPath id="clip0_35_1142">
<rect width="37" height="37" rx="4" fill="white"/>
</clipPath>
</defs>
</svg>
