<svg width="34" height="35" viewBox="0 0 34 35" fill="none" xmlns="http://www.w3.org/2000/svg">
<rect width="34" height="35" rx="4" fill="#696969" fill-opacity="0.5"/>
<path d="M14.4268 25.6758H22.7542C23.1015 25.6942 23.4405 25.5652 23.6927 25.3188C23.9446 25.0723 24.0875 24.7302 24.0875 24.3724C24.0875 24.0146 23.9446 23.6723 23.6927 23.426C23.4405 23.1796 23.1015 23.0503 22.7542 23.0687H14.4268C14.0797 23.0503 13.7404 23.1796 13.4886 23.426C13.2364 23.6722 13.0938 24.0146 13.0938 24.3724C13.0938 24.7302 13.2364 25.0723 13.4886 25.3188C13.7404 25.5652 14.0797 25.6942 14.4268 25.6758Z" fill="#FF0000"/>
<path d="M11.8011 24.3708C11.8011 25.0918 11.2332 25.6761 10.5331 25.6761C9.83271 25.6761 9.26514 25.0918 9.26514 24.3708C9.26514 23.6501 9.8327 23.0656 10.5331 23.0656C11.2332 23.0656 11.8011 23.6501 11.8011 24.3708Z" fill="#FF0000"/>
<path d="M14.4268 19.8071H22.7542C23.2073 19.8071 23.6257 19.5582 23.8524 19.1545C24.0789 18.7505 24.0789 18.253 23.8524 17.8492C23.6257 17.4452 23.2073 17.1966 22.7542 17.1966H14.4268C13.9739 17.1966 13.5552 17.4452 13.3288 17.8492C13.1023 18.253 13.1023 18.7505 13.3288 19.1545C13.5552 19.5582 13.9739 19.8071 14.4268 19.8071Z" fill="#FF0000"/>
<path d="M11.8011 18.5022C11.8011 19.2229 11.2332 19.8074 10.5331 19.8074C9.83271 19.8074 9.26514 19.2229 9.26514 18.5022C9.26514 17.7812 9.8327 17.1969 10.5331 17.1969C11.2332 17.1969 11.8011 17.7812 11.8011 18.5022Z" fill="#FF0000"/>
<path d="M14.4268 13.9357H22.7542C23.2073 13.9357 23.6257 13.6869 23.8524 13.2831C24.0789 12.8791 24.0789 12.3816 23.8524 11.9776C23.6257 11.5739 23.2073 11.325 22.7542 11.325H14.4268C13.9739 11.325 13.5552 11.5738 13.3288 11.9776C13.1023 12.3816 13.1023 12.8791 13.3288 13.2831C13.5552 13.6869 13.9739 13.9357 14.4268 13.9357Z" fill="#FF0000"/>
<path d="M11.8011 12.6301C11.8011 13.3508 11.2332 13.9353 10.5331 13.9353C9.83271 13.9353 9.26514 13.3508 9.26514 12.6301C9.26514 11.9091 9.8327 11.3246 10.5331 11.3246C11.2332 11.3246 11.8011 11.9091 11.8011 12.6301Z" fill="#FF0000"/>
</svg>
