<svg width="36" height="36" viewBox="0 0 36 36" fill="none" xmlns="http://www.w3.org/2000/svg">
<rect width="36" height="36" rx="4" fill="#696969" fill-opacity="0.5"/>
<path d="M25.6051 16.3505C25.509 16.1796 25.3692 16.0371 25.2 15.9379C25.0308 15.8388 24.8383 15.7863 24.6419 15.786H19.107V4.71603C19.1163 4.46746 19.0413 4.2233 18.8949 4.02252C18.7483 3.82147 18.5384 3.6759 18.2989 3.60889C18.0674 3.54462 17.8213 3.55725 17.5974 3.64514C17.3739 3.73303 17.1849 3.89123 17.0591 4.09613L8.20325 18.487C8.00549 18.8295 8.00549 19.2514 8.20325 19.5941C8.29032 19.7721 8.42352 19.9237 8.58887 20.0328C8.75449 20.1418 8.9462 20.2044 9.14422 20.214H14.6792V31.284C14.6701 31.5326 14.7448 31.7771 14.8915 31.9778C15.0379 32.1786 15.248 32.3242 15.4872 32.3912C15.5864 32.4071 15.6872 32.4071 15.7863 32.3912C16.1708 32.3895 16.527 32.1882 16.7273 31.8597L25.5832 17.4689H25.5829C25.6856 17.3013 25.7416 17.1093 25.7457 16.913C25.7496 16.7163 25.701 16.5224 25.6051 16.3507L25.6051 16.3505Z" fill="#00BF8F"/>
</svg>
