<svg width="33" height="33" viewBox="0 0 33 33" fill="none" xmlns="http://www.w3.org/2000/svg">
<rect width="33" height="33" rx="4" fill="#696969" fill-opacity="0.5"/>
<path d="M29.6915 16.5C29.6915 23.7735 23.7739 29.6916 16.4999 29.6916C9.2257 29.6916 3.30762 23.7735 3.30762 16.5C3.30762 9.22582 9.22519 3.30774 16.4999 3.30774C18.9035 3.30774 21.2576 3.96181 23.3074 5.19957C23.787 5.48986 23.9411 6.11325 23.6513 6.59285C23.3615 7.07247 22.7387 7.22706 22.2581 6.93778C20.5248 5.89041 18.5334 5.33728 16.4996 5.33728C10.3445 5.33728 5.33692 10.3447 5.33692 16.4999C5.33692 22.6551 10.3443 27.6619 16.4989 27.6619C22.6539 27.6619 27.6609 22.6545 27.6609 16.4999C27.6609 13.6073 26.5569 10.8633 24.5528 8.77521C24.1648 8.37087 24.1781 7.72887 24.5825 7.34035C24.9863 6.95288 25.6284 6.96471 26.0173 7.37006C28.386 9.83842 29.6907 13.0807 29.6907 16.4998L29.6915 16.5Z" fill="#FF0000"/>
<path d="M16.4972 7.36507C17.0577 7.36507 17.5119 7.81901 17.5119 8.37969V16.4976C17.5119 17.0585 17.0574 17.5122 16.4972 17.5122H11.4236C10.8631 17.5122 10.4089 17.0582 10.4089 16.4976C10.4089 15.9366 10.8634 15.4829 11.4236 15.4829H15.4826V8.37956C15.4824 7.81862 15.9368 7.36469 16.4972 7.36469V7.36507Z" fill="#FF0000"/>
</svg>
