<svg width="63" height="24" viewBox="0 0 63 24" fill="none" xmlns="http://www.w3.org/2000/svg">
<path d="M0.238905 18.2503C0.00354623 18.3947 -0.0701559 18.7026 0.0742862 18.938L2.42805 22.7733C2.57249 23.0087 2.88037 23.0824 3.11573 22.9379C3.35108 22.7935 3.42479 22.4856 3.28035 22.2503L1.18811 18.8411L4.5973 16.7488C4.83265 16.6044 4.90635 16.2965 4.76191 16.0612C4.61748 15.8258 4.30959 15.7521 4.07424 15.8965L0.238905 18.2503ZM62.269 0.254241L61.8385 -1.28069e-05C55.0951 11.4185 48.3638 17.9657 39.1011 20.6852C29.8008 23.4157 17.8584 22.3175 0.616837 18.1902L0.500432 18.6765L0.384026 19.1627C17.6427 23.2941 29.8108 24.4549 39.3828 21.6447C48.9925 18.8233 55.8954 12.03 62.6995 0.508494L62.269 0.254241Z" fill="white"/>
</svg>
