<svg preserveAspectRatio="none" width="100%" height="100%" overflow="visible" style="display: block;" viewBox="0 0 54 7.36396" fill="none" xmlns="http://www.w3.org/2000/svg">
<path id="Arrow 6" d="M0.5 3.18198C0.223858 3.18198 0 3.40584 0 3.68198C0 3.95812 0.223858 4.18198 0.5 4.18198V3.68198V3.18198ZM53.8535 4.03553C54.0488 3.84027 54.0488 3.52369 53.8535 3.32843L50.6716 0.146447C50.4763 -0.0488155 50.1597 -0.0488155 49.9645 0.146447C49.7692 0.341709 49.7692 0.658291 49.9645 0.853554L52.7929 3.68198L49.9645 6.51041C49.7692 6.70567 49.7692 7.02225 49.9645 7.21751C50.1597 7.41278 50.4763 7.41278 50.6716 7.21751L53.8535 4.03553ZM0.5 3.68198V4.18198H53.5V3.68198V3.18198H0.5V3.68198Z" fill="var(--stroke-0, white)"/>
</svg>
