<svg preserveAspectRatio="none" width="100%" height="100%" overflow="visible" style="display: block;" viewBox="0 0 52.6443 15.9375" fill="none" xmlns="http://www.w3.org/2000/svg">
<path id="Arrow 9" d="M0.577591 0.481721C0.304787 0.438908 0.0489303 0.625353 0.00611791 0.898156C-0.0366944 1.17096 0.14975 1.42682 0.422554 1.46963L0.500072 0.975675L0.577591 0.481721ZM51.1295 0.334957C51.0383 0.0743183 50.753 -0.0630175 50.4924 0.0282086L46.245 1.51482C45.9844 1.60605 45.8471 1.89129 45.9383 2.15193C46.0295 2.41257 46.3148 2.54991 46.5754 2.45868L50.3508 1.13724L51.6723 4.91266C51.7635 5.1733 52.0487 5.31064 52.3094 5.21941C52.57 5.12819 52.7073 4.84294 52.6161 4.58231L51.1295 0.334957ZM0.500072 0.975675L0.422554 1.46963C5.41884 2.25372 10.0809 4.5616 14.5367 7.13279C18.9606 9.68552 23.2255 12.5289 27.3072 14.2632C31.413 16.0078 35.4588 16.6901 39.4676 14.8272C43.45 12.9766 47.2815 8.66481 51.1081 0.71704L50.6576 0.500136L50.2071 0.283233C46.4158 8.15756 42.7144 12.2157 39.0462 13.9204C35.4043 15.6127 31.6816 15.0354 27.6983 13.3429C23.6908 11.6401 19.546 8.8688 15.0365 6.26665C10.5591 3.68296 5.7644 1.29571 0.577591 0.481721L0.500072 0.975675Z" fill="var(--stroke-0, white)"/>
</svg>
