<svg preserveAspectRatio="none" width="100%" height="100%" overflow="visible" style="display: block;" viewBox="0 0 124.483 38.0643" fill="none" xmlns="http://www.w3.org/2000/svg">
<path id="Arrow 7" d="M0.993467 1.71374C0.948714 1.44125 0.691536 1.25663 0.419045 1.30139C0.146553 1.34614 -0.0380663 1.60332 0.00668648 1.87581L0.500077 1.79478L0.993467 1.71374ZM124.462 1.93863C124.541 1.67416 124.391 1.39536 124.127 1.31592L119.817 0.0212712C119.553 -0.0581746 119.274 0.091815 119.194 0.356282C119.115 0.62075 119.265 0.899546 119.529 0.978992L123.36 2.12979L122.209 5.96067C122.13 6.22514 122.28 6.50394 122.544 6.58338C122.809 6.66283 123.088 6.51284 123.167 6.24837L124.462 1.93863ZM0.500077 1.79478L0.00668648 1.87581C2.00427 14.0387 5.29448 23.1423 10.5306 29.1816C15.7905 35.2484 22.9636 38.1669 32.5745 38.0616C42.1606 37.9565 54.1952 34.845 69.2509 28.8502C84.3138 22.8526 102.44 13.9525 124.22 2.2351L123.983 1.79478L123.746 1.35445C101.978 13.0653 83.8912 21.9445 68.881 27.9212C53.8636 33.9007 41.9652 36.9586 32.5636 37.0616C23.1868 37.1644 16.3177 34.33 11.2862 28.5266C6.23084 22.6957 2.98038 13.8117 0.993467 1.71374L0.500077 1.79478Z" fill="var(--stroke-0, white)"/>
</svg>
