<svg preserveAspectRatio="none" width="100%" height="100%" overflow="visible" style="display: block;" viewBox="0 0 109.349 39.3003" fill="none" xmlns="http://www.w3.org/2000/svg">
<path id="Arrow 5" d="M0.902373 5.07762C0.738424 4.85542 0.425384 4.80819 0.203178 4.97214C-0.0190281 5.13609 -0.0662557 5.44913 0.0976925 5.67133L0.500032 5.37448L0.902373 5.07762ZM109.228 0.486492C109.22 0.210451 108.99 -0.00727585 108.714 0.000186205L104.216 0.121787C103.94 0.12925 103.722 0.359075 103.73 0.635116C103.737 0.911158 103.967 1.12888 104.243 1.12142L108.241 1.01333L108.35 5.01187C108.357 5.28791 108.587 5.50564 108.863 5.49818C109.139 5.49072 109.357 5.26089 109.349 4.98485L109.228 0.486492ZM0.500032 5.37448L0.0976925 5.67133C19.0726 31.3889 35.9885 41.2306 53.4396 38.9922C62.1373 37.8766 70.9047 33.7642 80.0595 27.2308C89.2149 20.697 98.7852 11.7221 109.091 0.843874L108.728 0.500004L108.365 0.156133C98.0768 11.0158 88.5576 19.9376 79.4786 26.4168C70.3992 32.8964 61.7874 36.9133 53.3124 38.0003C36.4177 40.1674 19.8133 30.7084 0.902373 5.07762L0.500032 5.37448Z" fill="var(--stroke-0, white)"/>
</svg>
