<svg preserveAspectRatio="none" width="100%" height="100%" overflow="visible" style="display: block;" viewBox="0 0 110.09 20.4755" fill="none" xmlns="http://www.w3.org/2000/svg">
<path id="Arrow 4" d="M0.247684 18.3132C0.00930676 18.4526 -0.0709341 18.7588 0.068461 18.9972C0.207856 19.2356 0.514101 19.3158 0.752478 19.1764L0.500081 18.7448L0.247684 18.3132ZM51.1313 0.54001L51.1097 0.0404737L51.1313 0.54001ZM109.726 19.2257C109.992 19.1502 110.146 18.8737 110.07 18.6081L108.84 14.2796C108.764 14.014 108.488 13.8599 108.222 13.9354C107.956 14.0109 107.802 14.2875 107.878 14.5531L108.972 18.4006L105.124 19.4945C104.859 19.57 104.705 19.8465 104.78 20.1121C104.856 20.3778 105.132 20.5319 105.398 20.4563L109.726 19.2257ZM0.500081 18.7448C0.752478 19.1764 0.75253 19.1764 0.752695 19.1763C0.7529 19.1762 0.753177 19.176 0.753587 19.1758C0.754406 19.1753 0.755674 19.1745 0.757389 19.1735C0.760818 19.1715 0.766034 19.1685 0.773018 19.1644C0.786985 19.1563 0.808026 19.1441 0.835993 19.1279C0.891927 19.0956 0.975568 19.0473 1.08575 18.9843C1.30613 18.8582 1.63267 18.6728 2.05607 18.4363C2.90291 17.9633 4.13709 17.286 5.68423 16.4701C8.77887 14.8382 13.1238 12.6529 18.1242 10.4397C28.1418 6.00577 40.727 1.4887 51.1528 1.03955L51.1313 0.54001L51.1097 0.0404737C40.4852 0.498191 27.7548 5.08351 17.7194 9.52526C12.6933 11.7499 8.32737 13.9458 5.21778 15.5856C3.6628 16.4055 2.42152 17.0867 1.56842 17.5632C1.14186 17.8015 0.812319 17.9886 0.5891 18.1163C0.47749 18.1802 0.392458 18.2292 0.335168 18.2624C0.306523 18.2789 0.284814 18.2916 0.270185 18.3001C0.26287 18.3043 0.257325 18.3075 0.253569 18.3097C0.251691 18.3108 0.25026 18.3117 0.249279 18.3122C0.248788 18.3125 0.248389 18.3128 0.248143 18.3129C0.247857 18.3131 0.247684 18.3132 0.500081 18.7448ZM51.1313 0.54001L51.1528 1.03955C63.0084 0.528794 77.538 5.04315 89.1507 9.71946C94.9471 12.0536 99.9982 14.4203 103.6 16.2034C105.401 17.0948 106.839 17.8401 107.826 18.3622C108.319 18.6233 108.7 18.8285 108.957 18.9683C109.086 19.0382 109.183 19.0917 109.249 19.1276C109.281 19.1456 109.306 19.1592 109.322 19.1682C109.33 19.1727 109.336 19.1761 109.34 19.1784C109.342 19.1795 109.344 19.1803 109.345 19.1808C109.345 19.1811 109.346 19.1813 109.346 19.1814C109.346 19.1815 109.346 19.1816 109.589 18.7448C109.833 18.308 109.833 18.3079 109.832 18.3077C109.832 18.3076 109.832 18.3073 109.831 18.307C109.83 18.3064 109.828 18.3054 109.826 18.3042C109.822 18.3018 109.815 18.2982 109.807 18.2935C109.79 18.284 109.764 18.27 109.731 18.2517C109.664 18.2149 109.565 18.1605 109.435 18.0897C109.174 17.9482 108.79 17.7412 108.293 17.4783C107.299 16.9524 105.853 16.203 104.044 15.3072C100.425 13.5157 95.35 11.1378 89.5243 8.79185C77.8927 4.10794 63.1932 -0.480094 51.1097 0.0404737L51.1313 0.54001Z" fill="var(--stroke-0, #A7A7A7)"/>
</svg>
