<svg preserveAspectRatio="none" width="100%" height="100%" overflow="visible" style="display: block;" viewBox="0 0 68.594 24.681" fill="none" xmlns="http://www.w3.org/2000/svg">
<path id="Arrow 8" d="M0.347915 2.98629C0.0848809 3.07035 -0.0601999 3.35174 0.0238684 3.61477C0.107937 3.87781 0.389319 4.02289 0.652354 3.93882L0.500134 3.46255L0.347915 2.98629ZM68.1942 23.768C68.4647 23.7126 68.6391 23.4484 68.5837 23.1778L67.681 18.7693C67.6256 18.4988 67.3613 18.3244 67.0908 18.3798C66.8203 18.4352 66.6459 18.6994 66.7013 18.9699L67.5038 22.8886L63.5851 23.6911C63.3145 23.7465 63.1402 24.0107 63.1956 24.2812C63.251 24.5518 63.5152 24.7261 63.7857 24.6707L68.1942 23.768ZM0.500134 3.46255L0.652354 3.93882C13.8515 -0.279738 23.9925 0.290851 34.1347 4.0744C44.3199 7.87397 54.5094 14.9108 67.8185 23.6954L68.0939 23.2781L68.3693 22.8608C55.1102 14.1091 44.8036 6.9871 34.4842 3.13747C24.1219 -0.728187 13.7502 -1.2972 0.347915 2.98629L0.500134 3.46255Z" fill="var(--stroke-0, white)"/>
</svg>
