<svg width="64" height="50" viewBox="0 0 64 50" fill="none" xmlns="http://www.w3.org/2000/svg">
<path d="M3.19177e-07 5.89954e-06H7.30192V49.5994H3.19177e-07V5.89954e-06Z" fill="white"/>
<path d="M42.4839 42.3086V49.5994H3.19177e-07V42.3086L42.4839 42.3086Z" fill="white"/>
<path d="M63.7258 49.5994H56.4239L56.4239 5.26216e-06L63.7259 5.89954e-06L63.7258 49.5994Z" fill="white"/>
<path d="M21.1313 7.29079L21.1313 0L63.7259 5.89954e-06L63.7258 7.2908L21.1313 7.29079Z" fill="white"/>
<path d="M21.1313 0L28.4332 5.89954e-06V35.4597H21.1313L21.1313 0Z" fill="white"/>
<path d="M35.182 14.1397H42.4839V49.5994H35.182V14.1397Z" fill="white"/>
<path d="M14.3826 5.89954e-06V7.29079L0 7.29079L3.19177e-07 5.89954e-06H14.3826Z" fill="white"/>
<path d="M63.7258 42.3086V49.5994H49.3433V42.3086H63.7258Z" fill="white"/>
</svg>
