<svg width="14" height="14" viewBox="0 0 14 14" fill="none" xmlns="http://www.w3.org/2000/svg">
<g clip-path="url(#clip0_1_2605)">
<path d="M5.44556 5.36596V4.63358C5.51687 4.62833 5.58862 4.62483 5.66169 4.62221C7.66412 4.55965 8.97837 6.34333 8.97837 6.34333C8.97837 6.34333 7.55912 8.31252 6.0375 8.31252C5.83632 8.31349 5.63635 8.28142 5.44556 8.21758V5.99902C6.22519 6.09308 6.38181 6.43652 6.85081 7.21877L7.89337 6.33983C7.64308 6.03788 7.33133 5.79271 6.97889 5.62064C6.62645 5.44857 6.2414 5.35355 5.84937 5.3419C5.71444 5.34268 5.57964 5.35071 5.44556 5.36596ZM5.44556 2.94702V4.04077C5.51731 4.03508 5.5895 4.03027 5.66169 4.02765C8.44681 3.93402 10.2611 6.31183 10.2611 6.31183C10.2611 6.31183 8.17687 8.84583 6.006 8.84583C5.81812 8.84579 5.6306 8.8294 5.44556 8.79683V9.47277C5.60038 9.49259 5.75629 9.50267 5.91237 9.50296C7.93275 9.50296 9.394 8.47133 10.8089 7.24983C11.0429 7.43796 12.0037 7.89471 12.201 8.09508C10.8557 9.22121 7.72056 10.129 5.94475 10.129C5.77325 10.129 5.60831 10.1185 5.44688 10.1028V11.053H13.125V2.94702H5.44556ZM5.44556 8.21933V8.79683C3.577 8.46346 3.05813 6.52183 3.05813 6.52183C3.70129 5.87914 4.54245 5.4722 5.44556 5.36683V5.9999H5.44294C5.17812 5.99666 4.91587 6.05209 4.67503 6.16223C4.43418 6.27237 4.2207 6.43447 4.04994 6.6369C4.04994 6.6369 4.39206 7.86671 5.44556 8.22065M2.12669 6.43696C2.52194 5.91985 3.02183 5.49194 3.59373 5.18119C4.16562 4.87044 4.79664 4.68384 5.44556 4.63358V4.04077C2.996 4.23721 0.875 6.31183 0.875 6.31183C0.875 6.31183 2.07637 9.78515 5.44556 10.1028V9.47277C2.975 9.16171 2.12669 6.43696 2.12669 6.43696Z" fill="#80BC00"/>
</g>
<defs>
<clipPath id="clip0_1_2605">
<rect width="14" height="14" fill="white"/>
</clipPath>
</defs>
</svg>
